<?xml version="1.0" encoding="UTF-8"?>
<svg xmlns="http://www.w3.org/2000/svg" viewBox="0 0 34.2 29.8">
  <defs>
    <style>
      .st0 {
        fill: none;
        stroke: #000;
        stroke-linecap: round;
        stroke-linejoin: round;
        stroke-width: 2px;
      }
    </style>
  </defs>
  <path class="st0" d="M8.6,14.9v-2.9h17.3v2.9M4.3,12l10.4,6.9c.9.6,1.4.9,1.9,1s.9.1,1.4,0,1-.5,1.9-1l10.4-6.9M14.7,3.4l-8.4,5.3c-.8.5-1.2.8-1.5,1.1-.3.3-.5.6-.6,1-.1.5-.1.9-.1,1.8v9.2c0,1.6,0,2.4.3,3,.3.5.7,1,1.3,1.3.6.3,1.4.3,3,.3h16.7c1.6,0,2.4,0,3-.3.5-.3,1-.7,1.3-1.3.3-.6.3-1.4.3-3v-9.2c0-.9,0-1.4-.1-1.8s-.3-.7-.6-1-.7-.6-1.5-1.1l-8.4-5.3c-.9-.6-1.4-.8-1.8-1h-1.3c-.5.1-.9.4-1.8,1h.2Z"/>
</svg>
