<?xml version="1.0" encoding="UTF-8"?>
<svg id="Livello_1" xmlns="http://www.w3.org/2000/svg" version="1.1" viewBox="0 0 39.4 33.8">
  <!-- Generator: Adobe Illustrator 30.0.0, SVG Export Plug-In . SVG Version: 2.1.1 Build 123)  -->
  <defs>
    <style>
      .st0 {
        fill: none;
        stroke: #000;
        stroke-linecap: round;
        stroke-linejoin: round;
        stroke-width: 2px;
      }
    </style>
  </defs>
  <path class="st0" d="M22.99,23.84l2.38-1.7c.34-.27.79-.52,1.2-.57s.94-.09,1.34-.04.91.11,1.29.37.76.51,1.03.85l2.13,2.74c.27.34.52.79.57,1.2s.09.94.04,1.34-.11.91-.37,1.29-.51.76-.85,1.03l-1.25.97c-.81.72-1.89,1.1-3.13,1.15s-2.23-.28-3.18-.91c-7.95-5.53-14.07-13.3-17.45-22.47-.38-1.08-.44-2.22-.1-3.31s.98-2.04,1.89-2.75l1.25-.97c.8-.62,1.75-.81,2.56-.71s1.77.63,2.3,1.32l2.21,2.85c.62.8.81,1.75.71,2.56s-.63,1.77-1.32,2.3l-2.4,1.86c1.18,2.1,2.47,4.12,3.98,5.96,1.42,1.83,3.04,3.68,4.69,5.22h0l.46.41h0Z"/>
</svg>